<?xml version="1.0" encoding="UTF-8"?>
<svg id="uuid-e5871aee-1abb-4edf-b0ee-e3a465dda17e" data-name="Layer 1" xmlns="http://www.w3.org/2000/svg" viewBox="0 0 160 64">
  <rect x="-10" y="-14" width="176" height="88" style="fill: #5846f1;"/>
  <g>
    <path d="m-1.69,27.85c-6.89-.57-4.21-11.29-5.11-16.65-1.79-5.36,1.79-.89,2.68-.89,2.68,2.68,0,6.25,1.83,8.83.52,4.37.6,8.71.6,8.71Zm4.96-6.6l-5.47-.19-.51-4.09,5.62.17.36,4.11Zm-1.52-10.79c7.53-.15,3.96,12.35,4.85,17.71h-3.57c-.89-2.68,0-6.25-.27-8.87-.38-4.38-1.01-8.84-1.01-8.84Z" style="fill: #c6f76a;"/>
    <path d="m8.57,28.11c4.28-5.3,2.5-22.27,10.53-17.8,5.36,2.68,7.14,10.72,9.82,16.97-8.93,1.79-8.93-9.82-12.5-15.18h1.79c-.89,5.36-3.57,10.72-5.26,15.94l-4.38.08Zm3.07-4.31l1.37-3.91h9.16l1.37,3.91h-11.9Z" style="fill: #c6f76a;"/>
    <path d="m40.51,27.45v-5.81l1.26,1.1h-4.74c-1.68,0-3.13-.28-4.34-.83-1.21-.55-2.15-1.35-2.8-2.38-.65-1.04-.98-2.27-.98-3.7s.34-2.75,1.03-3.82c.69-1.06,1.66-1.88,2.92-2.45,1.26-.57,2.74-.86,4.43-.86h8.44v18.75h-5.22Zm-11.55,0l4.69-6.78h5.33l-4.45,6.78h-5.57Zm11.55-7.5v-8.39l1.26,1.31h-4.37c-1.04,0-1.82.24-2.34.71-.53.47-.79,1.19-.79,2.16s.26,1.67.79,2.16c.53.49,1.29.74,2.29.74h4.42l-1.26,1.31Z" style="fill: #c6f76a;"/>
  </g>
  <g>
    <g>
      <path d="m71.53,57.12v-17.78h8.36c2.56.16,7.09-.75,8,.16,2.72,5.44-.91,11.79.33,17.63h-4.98s0-3.73,0-7.46c0-3.73.01-7.46.01-7.46l1.13,1.12h-9l1.09-1.12v14.91h-4.95Z" style="fill: #c6f76a;"/>
      <path d="m102.57,57.01c-.16-2.1-.16-3.91.74-5.73l.91.91c-3.63-1.81-9.07,2.72-11.79-2.72-4.54-11.79,11.79-10.89,19.05-11.79-.91,6.35-2.72,12.7-3.44,19.15l-5.47.19Zm-11.53.11c3.2-4.02,5.02-8.55,10.46-6.74-1.81,2.72-3.63,4.54-5,6.74h-5.46Zm12.31-7.46c.88-2.91.88-5.63.88-8.36.91,0,.91.91,1.81.91-2.72,1.81-8.17-.91-8.17,3.63s4.54,1.81,7.05,2.43l-1.58,1.39Z" style="fill: #c6f76a;"/>
      <path d="m116.82,56.39c.11-5.11,4.64-9.64,4.64-15.99l1.81,1.81h-9.07c.91-9.07,15.42-5.44,19.96-2.72,3.63,2.72-4.54,1.81-7.26,2.72,0-.91.91-.91.91-1.81-.91,5.44-2.72,10.89-5.36,15.73l-5.64.27Z" style="fill: #c6f76a;"/>
      <path d="m136.13,55.91c-1.97-.09-3.79-.09-5.6-.09,6.35-4.54,0-14.52,11.79-17.24-1.81,4.54-2.72,9.98-5,14.43-.71,1.71-1.2,2.9-1.2,2.9Zm9.43-6.85c-2.33-.5-4.15-.5-6.87-.5,0-5.44,4.54-3.63,8.24-3.52l-1.37,4.02Zm2.77-10.33c1.25-.15,3.06-.15,3.97-.15-5.44,5.44,1.81,14.52-9.98,17.24,3.63-4.54,3.63-9.98,5.33-14.45.43-1.58.68-2.64.68-2.64Z" style="fill: #c6f76a;"/>
      <path d="m150.4,56.34c3.72-5.05,1-15.94,8.26-16.85-1.81,2.72,0,7.26-2.72,9.98,5.44-2.72,2.72-9.98,10.89-9.98-3.63,5.44,6.35,12.7-6.35,17.24,1.81-2.72.91-6.35,1.81-9.98-2.72,2.72-4.54,7.26-7.86,9.78l-4.03-.19Z" style="fill: #c6f76a;"/>
    </g>
    <g>
      <path d="m-9.38,55.92c3.72-5.05,1-15.94,8.26-16.85-1.81,2.72,0,7.26-2.72,9.98,5.44-2.72,2.72-9.98,10.89-9.98-3.63,5.44,6.35,12.7-6.35,17.24,1.81-2.72.91-6.35,1.81-9.98-2.72,2.72-4.54,7.26-7.86,9.78l-4.03-.19Z" style="fill: #c6f76a;"/>
      <path d="m9.2,56.68c1.47-5.82-.34-12.17,1.47-17.61h2.72c1.81,4.54.91,9.07.74,13.64h6.79s0-3.44-.01-6.89-.07-6.87-.07-6.87l5.01-.03s.03,4.45.03,8.89v8.89h-8.37c-4.18,0-8.31-.01-8.31-.01Zm14.52,3.65v-4.75l1.04,1.12h-3.84v-3.99h7.39v7.62h-4.6Z" style="fill: #c6f76a;"/>
      <path d="m29.11,56.7l7.85-17.78h4.95l7.88,17.78h-5.23l-6.15-15.32h1.98l-6.15,15.32h-5.13Zm4.29-3.45l1.3-3.71h8.69l1.3,3.71h-11.28Z" style="fill: #c6f76a;"/>
    </g>
  </g>
  <g>
    <path d="m103.25,21.57c-9.52,4.43-18.45-1.82-14.88-11.65h5.36c0,2.68-.89,6.25.89,8.04,2.68,1.79,5.36.89,8.14-.52l.49,4.13Zm-.89,6.62c.3-6.66-3.27-14.7-.6-17.38,8.04-6.25,7.14,9.82,8.04,16.98l-7.44.4Z" style="fill: #c6f76a;"/>
    <path d="m123.2,24.02c4.47.19,8.93-.71,12.5.19v4.47c-6.25-1.79-14.29,1.79-18.75-1.79-3.57-3.57-1.79-10.72-3.57-16.97,6.25,1.79,13.4-3.57,19.65,4.47-3.57,0-8.04,0-11.75-.34l1.93,9.98Zm-1.64-7c3.43,3.61,7.89-7.1,11.46,4.51-3.57,0-7.14-1.79-10.72-.76l-.75-3.75Z" style="fill: #c6f76a;"/>
    <path d="m138.65,28.35c-.27-5.92-1.17-12.17-3.85-17.53,7.14-.89,19.65.89,16.07,10.72-.89,2.68-5.36,3.57-9.82,2.68.89-.89.89-1.79,1.79-2.68.89,2.68.89,4.47.77,7.01l-4.96-.2Zm4.54-5.98c-1.24-.83-2.13-1.73-3.02-2.62,2.68.89,5.36,1.79,7.14,0,1.79-4.47-5.36-5.36-8.04-4.47.89-.89.89-1.79,1.39-2.63l2.53,9.72Z" style="fill: #c6f76a;"/>
    <path d="m157.77,29.25c-6.89-.57-4.21-11.29-5.11-16.65-1.79-5.36,1.79-.89,2.68-.89,2.68,2.68,0,6.25,1.83,8.83.52,4.37.6,8.71.6,8.71Zm4.96-6.6l-5.47-.19-.51-4.09,5.62.17.36,4.11Zm-1.52-10.79c7.53-.15,3.96,12.35,4.85,17.71h-3.57c-.89-2.68,0-6.25-.27-8.87-.38-4.38-1.01-8.84-1.01-8.84Z" style="fill: #c6f76a;"/>
  </g>
</svg>