<?xml version="1.0" encoding="UTF-8"?>
<svg id="Layer_1" data-name="Layer 1" xmlns="http://www.w3.org/2000/svg" xmlns:xlink="http://www.w3.org/1999/xlink" viewBox="0 0 76.21 35.31">
  <defs>
    <style>
      .cls-1 {
        stroke: #ffec2d;
        stroke-miterlimit: 2;
        stroke-width: .19px;
      }

      .cls-1, .cls-2 {
        fill: #ffec2d;
      }

      .cls-3 {
        fill: #f79e1b;
      }

      .cls-4 {
        fill: url(#linear-gradient-2);
      }

      .cls-4, .cls-5, .cls-6 {
        fill-rule: evenodd;
      }

      .cls-5 {
        fill: url(#linear-gradient);
      }

      .cls-6 {
        fill: #0f754e;
      }

      .cls-7 {
        fill: #ff5f00;
      }

      .cls-8 {
        fill: #00abc2;
      }

      .cls-9 {
        fill: #eb001b;
      }
    </style>
    <linearGradient id="linear-gradient" x1="45.07" y1="16.69" x2="31.92" y2="16.69" gradientTransform="translate(0 41.58) scale(1 -1)" gradientUnits="userSpaceOnUse">
      <stop offset="0" stop-color="#1f5cd7"/>
      <stop offset="1" stop-color="#02aeff"/>
    </linearGradient>
    <linearGradient id="linear-gradient-2" x1="65.12" y1="18.81" x2="64.41" y2="18.81" xlink:href="#linear-gradient"/>
  </defs>
  <path class="cls-6" d="m4.17,22.34c.4,0,1.6-.11,2.11,1.6.34,1.15.89,3.04,1.63,5.66h.3c.8-2.77,1.35-4.65,1.65-5.66.51-1.73,1.79-1.6,2.3-1.6h3.95v12.29h-4.03v-7.24h-.27l-2.25,7.24h-3.03l-2.25-7.25h-.27v7.25H0v-12.29h4.17Zm17.73,0v7.25h.32l2.73-5.96c.53-1.19,1.66-1.29,1.66-1.29h3.9v12.29h-4.11v-7.25h-.32l-2.68,5.96c-.53,1.18-1.71,1.29-1.71,1.29h-3.9v-12.29h4.11Zm22.82,5.84c-.57,1.63-2.37,2.79-4.37,2.79h-4.31v3.66h-3.91v-6.45h12.59Z"/>
  <path class="cls-5" d="m40.54,22.34h-8.62c.21,2.74,2.56,5.08,5,5.08h8.07c.47-2.27-1.14-5.08-4.45-5.08Z"/>
  <path class="cls-7" d="m17.61,1.93h-6.88v12.37h6.88V1.93Z"/>
  <path class="cls-9" d="m11.16,8.11c0-2.51,1.18-4.74,2.99-6.18C12.82.88,11.14.25,9.31.25,4.96.25,1.44,3.77,1.44,8.11s3.52,7.87,7.87,7.87c1.84,0,3.52-.63,4.85-1.68-1.81-1.42-2.99-3.67-2.99-6.18Z"/>
  <path class="cls-3" d="m26.9,8.11c0,4.35-3.52,7.87-7.87,7.87-1.84,0-3.52-.63-4.85-1.68,1.84-1.44,2.99-3.67,2.99-6.18s-1.18-4.74-2.99-6.18c1.33-1.05,3.02-1.68,4.85-1.68,4.35,0,7.87,3.54,7.87,7.87Z"/>
  <path d="m51.48,13.92h-3.53L50.16.25h3.53l-2.21,13.67Z"/>
  <path d="m64.3.58c-.7-.28-1.8-.58-3.17-.58-3.49,0-5.95,1.86-5.96,4.52-.03,1.96,1.76,3.05,3.1,3.71,1.37.67,1.83,1.11,1.83,1.7-.01.92-1.11,1.34-2.12,1.34-1.41,0-2.17-.22-3.32-.73l-.47-.22-.49,3.07c.83.38,2.36.71,3.94.73,3.71,0,6.12-1.83,6.15-4.67.01-1.56-.93-2.75-2.97-3.72-1.24-.63-1.99-1.05-1.99-1.69.01-.58.64-1.18,2.04-1.18,1.15-.03,1.99.25,2.63.52l.32.15.48-2.95Z"/>
  <path d="m69,9.08c.29-.79,1.41-3.82,1.41-3.82-.01.03.29-.8.47-1.31l.25,1.18s.67,3.27.81,3.96h-2.94ZM73.36.25h-2.73c-.84,0-1.48.25-1.85,1.13l-5.25,12.54h3.71s.61-1.69.74-2.05h4.54c.1.48.42,2.05.42,2.05h3.27L73.36.25Z"/>
  <path d="m45,.25l-3.46,9.32-.38-1.89c-.64-2.18-2.65-4.55-4.89-5.73l3.17,11.96h3.74L48.73.25h-3.74Z"/>
  <path d="m38.32.25h-5.69l-.06.28c4.44,1.13,7.37,3.87,8.58,7.16l-1.24-6.28c-.2-.87-.83-1.12-1.6-1.15Z"/>
  <g>
    <path class="cls-6" d="m62.91,22.63s.09,0,.11.09c.02.06.05.16.09.31h.02c.04-.15.07-.25.09-.31.03-.09.1-.09.12-.09h.21v.66h-.22v-.39h-.01l-.12.39h-.16l-.12-.39h-.01v.39h-.22v-.66h.23Zm.96,0v.39h.02l.15-.32c.03-.06.09-.07.09-.07h.21v.66h-.22v-.39h-.02l-.14.32c-.03.06-.09.07-.09.07h-.21v-.66h.22Zm1.23.32c-.03.09-.13.15-.24.15h-.23v.2h-.21v-.35h.68Z"/>
    <path class="cls-4" d="m64.88,22.63h-.47c.01.15.14.27.27.27h.44c.03-.12-.06-.27-.24-.27Z"/>
    <path class="cls-7" d="m63.36,21.36h-.37v.67h.37v-.67Z"/>
    <path class="cls-9" d="m63.01,21.7c0-.14.06-.26.16-.33-.07-.06-.16-.09-.26-.09-.23,0-.42.19-.42.42s.19.42.42.42c.1,0,.19-.03.26-.09-.1-.08-.16-.2-.16-.33Z"/>
    <path class="cls-3" d="m63.86,21.7c0,.23-.19.42-.42.42-.1,0-.19-.03-.26-.09.1-.08.16-.2.16-.33s-.06-.26-.16-.33c.07-.06.16-.09.26-.09.23,0,.42.19.42.42Z"/>
    <path d="m65.47,22.03h-.19l.12-.74h.19l-.12.74Z"/>
    <path d="m66.16,21.31s-.1-.03-.17-.03c-.19,0-.32.1-.32.24,0,.11.1.16.17.2.07.04.1.06.1.09,0,.05-.06.07-.11.07-.08,0-.12-.01-.18-.04h-.03s-.03.15-.03.15c.04.02.13.04.21.04.2,0,.33-.1.33-.25,0-.08-.05-.15-.16-.2-.07-.03-.11-.06-.11-.09,0-.03.03-.06.11-.06.06,0,.11.01.14.03h.02s.03-.15.03-.15Z"/>
    <path d="m66.41,21.77s.08-.21.08-.21c0,0,.02-.04.03-.07v.06s.05.18.06.21h-.16Zm.24-.48h-.15s-.08.01-.1.06l-.28.68h.2s.03-.09.04-.11h.25s.02.11.02.11h.18l-.15-.74Z"/>
    <path d="m65.12,21.3l-.19.5-.02-.1c-.03-.12-.14-.25-.26-.31l.17.65h.2l.3-.74h-.2Z"/>
    <path d="m64.76,21.3h-.31c.24.08.4.22.46.4l-.07-.34s-.04-.06-.09-.06Z"/>
    <path class="cls-8" d="m51.49,18.85h20.05c1.17,0,2.12.95,2.12,2.12v12.1c0,1.17-.95,2.12-2.12,2.12h-20.05c-1.17,0-2.12-.95-2.12-2.12v-12.1c0-1.17.95-2.12,2.12-2.12Z"/>
    <g>
      <g>
        <circle class="cls-2" cx="63.66" cy="25.12" r="3.63"/>
        <g id="A">
          <g id="B">
            <path id="C" class="cls-2" d="m63.66,20.99c.22,0,.3-.14.3-.3,0-.22-.3-1.24-.3-1.24,0,0-.3,1.03-.3,1.24,0,.16.08.3.3.3Z"/>
            <path id="C-2" data-name="C" class="cls-2" d="m67.78,25.12c0,.22.14.3.3.3.22,0,1.24-.3,1.24-.3,0,0-1.03-.3-1.24-.3-.16,0-.3.08-.3.3Z"/>
            <path id="C-3" data-name="C" class="cls-2" d="m63.66,29.25c-.22,0-.3.14-.3.3,0,.22.3,1.24.3,1.24,0,0,.3-1.03.3-1.24,0-.16-.08-.3-.3-.3Z"/>
            <path id="C-4" data-name="C" class="cls-2" d="m59.53,25.12c0-.22-.14-.3-.3-.3-.22,0-1.24.3-1.24.3,0,0,1.03.3,1.24.3.16,0,.3-.08.3-.3Z"/>
          </g>
          <g id="B-2" data-name="B">
            <path id="C-5" data-name="C" class="cls-2" d="m65.24,21.31c.2.08.33-.01.39-.16.08-.2.2-1.26.2-1.26,0,0-.67.84-.75,1.04-.06.15-.04.31.16.39Z"/>
            <path id="C-6" data-name="C" class="cls-2" d="m67.47,26.7c-.08.2.01.33.16.39.2.08,1.26.2,1.26.2,0,0-.84-.67-1.04-.75-.15-.06-.31-.04-.39.16Z"/>
            <path id="C-7" data-name="C" class="cls-2" d="m62.08,28.94c-.2-.08-.33.01-.39.16-.08.2-.2,1.26-.2,1.26,0,0,.67-.84.75-1.04.06-.15.04-.31-.16-.39Z"/>
            <path id="C-8" data-name="C" class="cls-2" d="m59.84,23.54c.08-.2-.01-.33-.16-.39-.2-.08-1.26-.2-1.26-.2,0,0,.84.67,1.04.75.15.06.31.04.39-.16Z"/>
          </g>
          <g id="B-3" data-name="B">
            <path id="C-9" data-name="C" class="cls-2" d="m66.58,22.2c.15.15.31.11.42,0,.15-.15.67-1.09.67-1.09,0,0-.94.52-1.09.67-.11.11-.15.27,0,.42Z"/>
            <path id="C-10" data-name="C" class="cls-2" d="m66.58,28.04c-.15.15-.11.31,0,.42.15.15,1.09.67,1.09.67,0,0-.52-.94-.67-1.09-.11-.11-.27-.15-.42,0Z"/>
            <path id="C-11" data-name="C" class="cls-2" d="m60.74,28.04c-.15-.15-.31-.11-.42,0-.15.15-.67,1.09-.67,1.09,0,0,.94-.52,1.09-.67.11-.11.15-.27,0-.42Z"/>
            <path id="C-12" data-name="C" class="cls-2" d="m60.74,22.2c.15-.15.11-.31,0-.42-.15-.15-1.09-.67-1.09-.67,0,0,.52.94.67,1.09.11.11.27.15.42,0Z"/>
          </g>
          <g id="B-4" data-name="B">
            <path id="C-13" data-name="C" class="cls-2" d="m67.47,23.54c.09.2.24.22.39.16.2-.08,1.04-.75,1.04-.75,0,0-1.06.12-1.26.2-.15.06-.25.19-.16.39Z"/>
            <path id="C-14" data-name="C" class="cls-2" d="m65.24,28.94c-.2.09-.22.24-.16.39.08.2.75,1.04.75,1.04,0,0-.12-1.06-.2-1.26-.06-.15-.19-.25-.39-.16Z"/>
            <path id="C-15" data-name="C" class="cls-2" d="m59.84,26.7c-.09-.2-.24-.22-.39-.16-.2.08-1.04.75-1.04.75,0,0,1.06-.12,1.26-.2.15-.06.25-.19.16-.39Z"/>
            <path id="C-16" data-name="C" class="cls-2" d="m62.08,21.31c.2-.09.22-.24.16-.39-.08-.2-.75-1.04-.75-1.04,0,0,.12,1.06.2,1.26.06.15.19.25.39.16Z"/>
          </g>
        </g>
        <g id="A-2" data-name="A">
          <g id="B-5" data-name="B">
            <path id="C-17" data-name="C" class="cls-2" d="m64.46,21.07c.21.04.32-.08.35-.24.04-.21-.05-1.28-.05-1.28,0,0-.49.95-.53,1.16-.03.16.02.31.23.35Z"/>
            <path id="C-18" data-name="C" class="cls-2" d="m67.71,25.93c-.04.21.08.32.24.35.21.04,1.28-.05,1.28-.05,0,0-.95-.49-1.16-.53-.16-.03-.31.02-.35.23Z"/>
            <path id="C-19" data-name="C" class="cls-2" d="m62.85,29.17c-.21-.04-.32.08-.35.24-.04.21.05,1.28.05,1.28,0,0,.49-.95.53-1.16.03-.16-.02-.31-.23-.35Z"/>
            <path id="C-20" data-name="C" class="cls-2" d="m59.61,24.32c.04-.21-.08-.32-.24-.35-.21-.04-1.28.05-1.28.05,0,0,.95.49,1.16.53.16.03.31-.02.35-.23Z"/>
          </g>
          <g id="B-6" data-name="B">
            <path id="C-21" data-name="C" class="cls-2" d="m65.95,21.69c.18.12.32.05.41-.08.12-.18.44-1.2.44-1.2,0,0-.82.69-.94.87-.09.13-.1.29.08.41Z"/>
            <path id="C-22" data-name="C" class="cls-2" d="m67.09,27.42c-.12.18-.05.32.08.41.18.12,1.2.44,1.2.44,0,0-.69-.82-.87-.94-.13-.09-.29-.1-.41.08Z"/>
            <path id="C-23" data-name="C" class="cls-2" d="m61.36,28.55c-.18-.12-.32-.05-.41.08-.12.18-.44,1.2-.44,1.2,0,0,.82-.69.94-.87.09-.13.1-.29-.08-.41Z"/>
            <path id="C-24" data-name="C" class="cls-2" d="m60.22,22.83c.12-.18.05-.32-.08-.41-.18-.12-1.2-.44-1.2-.44,0,0,.69.82.87.94.13.09.29.1.41-.08Z"/>
          </g>
          <g id="B-7" data-name="B">
            <path id="C-25" data-name="C" class="cls-2" d="m67.09,22.83c.12.18.28.17.41.08.18-.12.87-.94.87-.94,0,0-1.02.32-1.2.44-.13.09-.2.23-.08.41Z"/>
            <path id="C-26" data-name="C" class="cls-2" d="m65.95,28.55c-.18.12-.17.28-.08.41.12.18.94.87.94.87,0,0-.32-1.02-.44-1.2-.09-.13-.23-.2-.41-.08Z"/>
            <path id="C-27" data-name="C" class="cls-2" d="m60.22,27.42c-.12-.18-.28-.17-.41-.08-.18.12-.87.94-.87.94,0,0,1.02-.32,1.2-.44.13-.09.2-.23.08-.41Z"/>
            <path id="C-28" data-name="C" class="cls-2" d="m61.36,21.69c.18-.12.17-.28.08-.41-.12-.18-.94-.87-.94-.87,0,0,.32,1.02.44,1.2.09.13.23.2.41.08Z"/>
          </g>
          <g id="B-8" data-name="B">
            <path id="C-29" data-name="C" class="cls-2" d="m67.71,24.32c.04.21.19.26.35.23.21-.04,1.16-.53,1.16-.53,0,0-1.07-.09-1.28-.05-.16.03-.28.14-.24.35Z"/>
            <path id="C-30" data-name="C" class="cls-2" d="m64.46,29.17c-.21.04-.26.19-.23.35.04.21.53,1.16.53,1.16,0,0,.09-1.07.05-1.28-.03-.16-.14-.28-.35-.24Z"/>
            <path id="C-31" data-name="C" class="cls-2" d="m59.61,25.93c-.04-.21-.19-.26-.35-.23-.21.04-1.16.53-1.16.53,0,0,1.07.09,1.28.05.16-.03.28-.14.24-.35Z"/>
            <path id="C-32" data-name="C" class="cls-2" d="m62.85,21.07c.21-.04.26-.19.23-.35-.04-.21-.53-1.16-.53-1.16,0,0-.09,1.07-.05,1.28.03.16.14.28.35.24Z"/>
          </g>
        </g>
      </g>
      <g>
        <path class="cls-2" d="m63.01,32.99c-.1,0-.19.02-.28.05-.13.02-.25.06-.37.08h-.05s-.08.02-.08.02c0,.02,0,.05,0,.07s0,.05,0,.07c0,.02-.02.04-.04.06-.02.02-.04.04-.06.05-.02.01-.05.02-.07.02-.02,0-.05,0-.07,0-.02,0-.05-.02-.07-.04-.02,0-.05.01-.08.01-.03,0-.05,0-.07,0-.03,0-.05-.02-.08-.03-.02-.01-.05-.02-.07-.04-.09.05-.19.11-.25.2-.03.04-.04.09-.04.14,0,.06.01.13.04.19,0,.02.02-.06.05-.07.05-.04.12-.07.18-.09.05-.03.05,0,.03.04,0,.02-.04.11,0,.06.18-.08.39-.1.58-.11.29-.03.57-.04.86-.04l.81.02c.13,0,.26.03.39.01.03,0,.08,0,.1-.03-.06-.03-.13-.03-.19-.04h-.51c-.14-.01-.29-.02-.43-.07-.04-.01-.07-.05-.1-.01-.05.02-.11.03-.16.03-.09,0-.19-.01-.28-.05.06-.09.14-.16.21-.24-.06,0-.11-.02-.17-.03.1-.07.19-.14.28-.22h0Z"/>
        <path class="cls-2" d="m67.21,33.92c-.2.12-.34-.09-.51-.15-.12.06-.13.28-.24.38-.13.15-.29-.04-.28-.19-.16.13-.24.43-.49.39-.12-.1-.21-.3-.3-.07-.07.11-.27.28-.38.1-.03-.15-.11-.33-.19-.09-.06.17-.24.3-.42.22-.1-.08.08-.37-.05-.35-.18.12-.29.42-.55.4-.1-.11.06-.3-.05-.42-.13.17-.27.41-.49.42-.11-.09,0-.34-.06-.37-.23.14-.47.38-.76.3.11-.43.58-.58.97-.61.68-.08,1.39.07,2.04-.17.11-.06.36-.15.27-.3-.08-.12.21-.07.24-.21-.02-.17.13-.15.28-.16.66-.03,1.31.11,1.96.13.05.32-.31.54-.59.45-.14.02-.34-.31-.3-.07-.03.13,0,.3-.13.38m-5.6-.65c.15.14.26-.03.4-.09.48-.16.89-.45,1.31-.74.25-.21.46-.47.8-.54.65-.2,1.35-.17,2-.36.5-.68,1.35-.93,2.05-1.32.16-.05.22-.18.27-.33.27-.43.64-.81,1.08-1.06.21-.11.45-.18.69-.13-.02.28-.18.52-.37.72.16,0,.29-.1.45-.1.05.29-.25.44-.42.61.09.02.44.05.25.14-.24.17-.52.28-.75.48.21.04.23.08.02.16-.11.08-.33.1-.35.25.16.1-.07.19-.16.22-.17.04-.35.11-.12.24-.08.13-.27.16-.41.14.04.14.11.31-.08.37-.42.32-.92.55-1.45.6.66.05,1.34-.07,1.91-.43.07-.09.47-.18.25-.26-.1-.04-.32-.09-.34-.17.31-.19.69-.12,1.02-.23,0-.11-.25-.08-.35-.1-.23-.02-.22-.08,0-.1.28-.07.6-.09.84-.27-.19-.09-.44-.01-.64-.08.35-.15.76-.17,1.07-.4.14-.16-.18-.11-.28-.11-.19.03-.28-.06-.06-.14.37-.28.85-.46,1.11-.86.06-.09.15-.36-.05-.26-.26.09-.49.38-.79.29.59-.45,1.15-.97,1.55-1.6.02-.18-.26-.2-.34-.06-.38.36-.72.79-1.2,1.02.46-.45.84-.97,1.18-1.52.07-.16.26-.36.16-.54-.17-.14-.38-.01-.47.15-.29.38-.52.83-.89,1.14.33-.63.67-1.3.68-2.03,0-.15-.03-.37-.23-.34-.16.03-.12.27-.19.39-.15.5-.21,1.03-.51,1.47.07-.4.19-.82.09-1.23-.04-.18-.34-.1-.3.08-.35,1.78-1.54,3.33-3.1,4.23-.71.4-1.51.66-2.32.78-.22.05-.45.02-.66.09-.51.39-.81,1.04-1.45,1.24-.29.14-.66.17-.87.44-.02.03-.02.07-.02.11"/>
        <path class="cls-2" d="m63.53,31.47c-.09.17-.15.37-.27.52-.37-.33-.9-.32-1.36-.34-.38-.02-.8-.06-1.1-.33-.31-.26-.57-.59-.91-.79-.32-.09-.64-.19-.89-.41-.55-.45-.86-1.11-1.39-1.56-.1-.1-.22-.18-.34-.26-.11.03-.06.26-.19.14-.07-.05-.25-.06-.27.02.16.21.33.46.35.74-.11.01-.31-.02-.36.02.15.22.34.42.55.57-.1.02-.31,0-.35.05.21.17.44.35.72.4.06.08-.08.22.03.29.07.03.3.08.14.15-.11.07-.07.24.07.24.09.04.28.06.3.13-.08.08-.32.17-.11.24.19.11.41.17.62.18-.11.09-.24.14-.36.23.5.29,1.06.49,1.6.67.22.07.44.14.67.18-.66-.04-1.29-.23-1.89-.5-.31-.14-.62-.27-.94-.39.14-.07.3-.09.45-.15-.3-.06-.63-.08-.89-.25.04-.07.19-.08.28-.11.16-.04.26-.08.03-.1-.23-.06-.49-.03-.69-.17.01-.08.22-.05.31-.09.11-.02.23-.03.31-.11-.35-.15-.81-.04-1.08-.35-.06-.12.2-.02.27-.04.19,0,.39.06.57-.02-.51-.22-1.06-.43-1.45-.85-.04-.07-.17-.25-.07-.27.3.04.52.37.85.32.04-.06-.19-.15-.25-.24-.47-.41-.93-.85-1.26-1.38-.02-.18.26-.2.33-.07.36.35.69.76,1.14.99.16.08-.09-.09-.13-.15-.42-.48-.81-.99-1.1-1.56-.05-.1-.14-.29.02-.34.16-.08.31.03.39.16.31.39.53.85.91,1.17-.33-.63-.67-1.29-.68-2.02,0-.14.02-.35.21-.35.16-.02.13.18.19.28.16.53.23,1.11.54,1.58-.07-.4-.17-.8-.1-1.2.02-.13.16-.17.26-.09.08.19.09.43.17.63.41,1.39,1.32,2.61,2.51,3.44.98.67,2.14,1.07,3.33,1.14.11,0,.21.01.32.02"/>
        <circle class="cls-2" cx="62.02" cy="33.25" r=".06"/>
        <circle class="cls-1" cx="62.02" cy="33.24" r=".03"/>
        <g id="D">
          <g id="E">
            <path class="cls-2" d="m52.63,19.06s-.18-.15-.24-.08c-.1.12.3.73.3.94,0,.35-.23.44-.52.49-.19.03-.51-.01-.51-.01.06-.08.1-.1.2-.11-.11-.06-.22-.18-.22-.38,0-.3.12-.42.12-.76,0-.19-.15-.43-.15-.43.27.03.41.28.33.48.04,0,.08,0,.12-.04.02.06-.01.12-.05.18.03.02.06,0,.11,0,0,.06-.04.12-.12.18.25-.06.4.11.4.29,0,.14-.09.23-.19.23-.03,0-.07-.01-.1-.03-.02.04,0,.09,0,.12-.07-.02-.11-.06-.08-.14-.05,0-.09-.02-.12-.06.03-.04.07-.06.12-.06-.04-.08,0-.12.07-.16,0,0-.04.16.06.16.04,0,.09-.01.09-.08,0-.06-.05-.14-.17-.13s-.21.08-.21.27c0,.17.14.26.32.26.16,0,.29-.08.29-.25,0-.23-.33-.74-.33-.94,0-.15.14-.24.27-.24.17,0,.32.17.32.17l-.1.13h0Z"/>
            <path id="F" class="cls-2" d="m52.67,23.14c0,.38-.34.57-.61.57-.36,0-.55-.21-.55-.5,0-.16.03-.26.1-.41l.82-1.71c.03-.06.04-.13.04-.23,0-.15-.15-.28-.3-.28-.14,0-.3.13-.3.29,0,.19.1.27.2.27.12,0,.17-.05.17-.14,0-.06-.03-.09-.07-.09-.11,0-.08.14-.08.14-.05-.01-.1-.07-.07-.13-.04,0-.08-.03-.1-.06.03-.03.06-.05.1-.06-.02-.08,0-.12.08-.14-.01.03-.01.06-.01.09.11-.03.29.02.29.21s-.13.36-.39.32c.06.03.09.09.1.15-.05-.02-.1-.02-.1-.02.03.05.07.1.07.2-.05-.02-.09-.06-.15-.04.09.18-.02.44-.31.5.11-.13.16-.26.16-.4,0-.44-.12-.51-.12-.82,0-.13.07-.26.2-.36h0c-.09-.02-.14-.06-.17-.12.2-.06.48-.05.63,0,.18.02.3.16.33.22s.11.32,0,.54l-.84,1.77c-.04.08-.06.16-.06.25,0,.22.21.3.32.3.14,0,.28-.11.28-.24,0-.08-.05-.13-.11-.13-.16,0-.15.13-.12.22-.1-.04-.16-.12-.14-.21-.06,0-.11-.03-.16-.09.04-.05.09-.09.16-.09-.03-.13.05-.18.14-.21-.03.09-.04.2.12.2.12,0,.21.02.26.1v-.5c.02-.15-.19-.15-.32-.1.05-.17.15-.27.39-.24-.06-.02-.12-.08-.12-.18,0-.14.11-.3.19-.34l.04,1.47h0Z"/>
            <path id="F-2" data-name="F" class="cls-2" d="m52.67,24.28c0-.38-.34-.57-.61-.57-.36,0-.55.21-.55.5,0,.16.03.26.1.41l.82,1.71c.03.06.04.13.04.23,0,.15-.15.28-.3.28-.14,0-.3-.13-.3-.29,0-.19.1-.27.2-.27.12,0,.17.05.17.14,0,.06-.03.09-.07.09-.11,0-.08-.14-.08-.14-.05.01-.1.07-.07.13-.04,0-.08.03-.1.06.03.03.06.05.1.06-.02.08,0,.12.08.14-.01-.03-.01-.06-.01-.09.11.03.29-.02.29-.21s-.13-.36-.39-.32c.06-.03.09-.09.1-.15-.05.02-.1.02-.1.02.03-.05.07-.1.07-.2-.05.02-.09.06-.15.04.09-.18-.02-.44-.31-.5.11.13.16.26.16.4,0,.44-.12.51-.12.82,0,.13.07.26.2.36h0c-.09.02-.14.06-.17.12.2.06.48.05.63,0,.18-.02.3-.16.33-.22s.11-.32,0-.54l-.84-1.77c-.04-.08-.06-.16-.06-.25,0-.22.21-.3.32-.3.14,0,.28.11.28.24,0,.08-.05.13-.11.13-.16,0-.15-.13-.12-.22-.1.04-.16.12-.14.21-.06,0-.11.03-.16.09.04.05.09.09.16.09-.03.13.05.18.14.21-.03-.09-.04-.2.12-.2.12,0,.21-.02.26-.1v.5c.02.15-.19.15-.32.1.05.17.15.27.39.24-.06.02-.12.08-.12.18,0,.14.11.3.19.34l.04-1.47h0Z"/>
          </g>
          <g id="E-2" data-name="E">
            <path class="cls-2" d="m52.63,19.06s.18-.15.24-.08c.1.12-.3.73-.3.94,0,.35.23.44.52.49.19.03.51-.01.51-.01-.06-.08-.1-.1-.2-.11.11-.06.22-.18.22-.38,0-.3-.12-.42-.12-.76,0-.19.15-.43.15-.43-.27.03-.41.28-.33.48-.04,0-.08,0-.12-.04-.02.06.01.12.05.18-.03.02-.06,0-.11,0,0,.06.04.12.12.18-.25-.06-.4.11-.4.29,0,.14.09.23.19.23.03,0,.07-.01.1-.03.02.04,0,.09,0,.12.07-.02.11-.06.08-.14.05,0,.09-.02.12-.06-.03-.04-.07-.06-.12-.06.04-.08,0-.12-.07-.16,0,0,.04.16-.06.16-.04,0-.09-.01-.09-.08,0-.06.05-.14.17-.13s.21.08.21.27c0,.17-.14.26-.32.26-.16,0-.29-.08-.29-.25,0-.23.33-.74.33-.94,0-.15-.14-.24-.27-.24-.17,0-.32.17-.32.17l.1.13h0Z"/>
            <path id="F-3" data-name="F" class="cls-2" d="m52.59,23.14c0,.38.34.57.61.57.36,0,.55-.21.55-.5,0-.16-.03-.26-.1-.41l-.82-1.71c-.03-.06-.04-.13-.04-.23,0-.15.15-.28.3-.28.14,0,.3.13.3.29,0,.19-.1.27-.2.27-.12,0-.17-.05-.17-.14,0-.06.03-.09.07-.09.11,0,.08.14.08.14.05-.01.1-.07.07-.13.04,0,.08-.03.1-.06-.03-.03-.06-.05-.1-.06.02-.08,0-.12-.08-.14.01.03.01.06.01.09-.11-.03-.29.02-.29.21s.13.36.39.32c-.06.03-.09.09-.1.15.05-.02.1-.02.1-.02-.03.05-.07.1-.07.2.05-.02.09-.06.15-.04-.09.18.02.44.31.5-.11-.13-.16-.26-.16-.4,0-.44.12-.51.12-.82,0-.13-.07-.26-.2-.36h0c.09-.02.14-.06.17-.12-.2-.06-.48-.05-.63,0-.18.02-.3.16-.33.22s-.11.32,0,.54l.84,1.77c.04.08.06.16.06.25,0,.22-.21.3-.32.3-.14,0-.28-.11-.28-.24,0-.08.05-.13.11-.13.16,0,.15.13.12.22.1-.04.16-.12.14-.21.06,0,.11-.03.16-.09-.04-.05-.09-.09-.16-.09.03-.13-.05-.18-.14-.21.03.09.04.2-.12.2-.12,0-.21.02-.26.1v-.5c-.02-.15.19-.15.32-.1-.05-.17-.15-.27-.39-.24.06-.02.12-.08.12-.18,0-.14-.11-.3-.19-.34l-.04,1.47h0Z"/>
            <path id="F-4" data-name="F" class="cls-2" d="m52.59,24.28c0-.38.34-.57.61-.57.36,0,.55.21.55.5,0,.16-.03.26-.1.41l-.82,1.71c-.03.06-.04.13-.04.23,0,.15.15.28.3.28.14,0,.3-.13.3-.29,0-.19-.1-.27-.2-.27-.12,0-.17.05-.17.14,0,.06.03.09.07.09.11,0,.08-.14.08-.14.05.01.1.07.07.13.04,0,.08.03.1.06-.03.03-.06.05-.1.06.02.08,0,.12-.08.14.01-.03.01-.06.01-.09-.11.03-.29-.02-.29-.21s.13-.36.39-.32c-.06-.03-.09-.09-.1-.15.05.02.1.02.1.02-.03-.05-.07-.1-.07-.2.05.02.09.06.15.04-.09-.18.02-.44.31-.5-.11.13-.16.26-.16.4,0,.44.12.51.12.82,0,.13-.07.26-.2.36h0c.09.02.14.06.17.12-.2.06-.48.05-.63,0-.18-.02-.3-.16-.33-.22s-.11-.32,0-.54l.84-1.77c.04-.08.06-.16.06-.25,0-.22-.21-.3-.32-.3-.14,0-.28.11-.28.24,0,.08.05.13.11.13.16,0,.15-.13.12-.22.1.04.16.12.14.21.06,0,.11.03.16.09-.04.05-.09.09-.16.09.03.13-.05.18-.14.21.03-.09.04-.2-.12-.2-.12,0-.21-.02-.26-.1v.5c-.02.15.19.15.32.1-.05.17-.15.27-.39.24.06.02.12.08.12.18,0,.14-.11.3-.19.34l-.04-1.47h0Z"/>
          </g>
        </g>
        <g id="D-2" data-name="D">
          <g id="E-3" data-name="E">
            <path class="cls-2" d="m52.63,34.98s-.18.15-.24.08c-.1-.12.3-.73.3-.94,0-.35-.23-.44-.52-.49-.19-.03-.51.01-.51.01.06.08.1.1.2.11-.11.06-.22.18-.22.38,0,.3.12.42.12.76,0,.19-.15.43-.15.43.27-.03.41-.28.33-.48.04,0,.08,0,.12.04.02-.06-.01-.12-.05-.18.03-.02.06,0,.11,0,0-.06-.04-.12-.12-.18.25.06.4-.11.4-.29,0-.14-.09-.23-.19-.23-.03,0-.07.01-.1.03-.02-.04,0-.09,0-.12-.07.02-.11.06-.08.14-.05,0-.09.02-.12.06.03.04.07.06.12.06-.04.08,0,.12.07.16,0,0-.04-.16.06-.16.04,0,.09.01.09.08,0,.06-.05.14-.17.13s-.21-.08-.21-.27c0-.17.14-.26.32-.26.16,0,.29.08.29.25,0,.23-.33.74-.33.94,0,.15.14.24.27.24.17,0,.32-.17.32-.17l-.1-.13h0Z"/>
            <path id="F-5" data-name="F" class="cls-2" d="m52.67,30.89c0-.38-.34-.57-.61-.57-.36,0-.55.21-.55.5,0,.16.03.26.1.41l.82,1.71c.03.06.04.13.04.23,0,.15-.15.28-.3.28-.14,0-.3-.13-.3-.29,0-.19.1-.27.2-.27.12,0,.17.05.17.14,0,.06-.03.09-.07.09-.11,0-.08-.14-.08-.14-.05.01-.1.07-.07.13-.04,0-.08.03-.1.06.03.03.06.05.1.06-.02.08,0,.12.08.14-.01-.03-.01-.06-.01-.09.11.03.29-.02.29-.21s-.13-.36-.39-.32c.06-.03.09-.09.1-.15-.05.02-.1.02-.1.02.03-.05.07-.1.07-.2-.05.02-.09.06-.15.04.09-.18-.02-.44-.31-.5.11.13.16.26.16.4,0,.44-.12.51-.12.82,0,.13.07.26.2.36h0c-.09.02-.14.06-.17.12.2.06.48.05.63,0,.18-.02.3-.16.33-.22s.11-.32,0-.54l-.84-1.77c-.04-.08-.06-.16-.06-.25,0-.22.21-.3.32-.3.14,0,.28.11.28.24,0,.08-.05.13-.11.13-.16,0-.15-.13-.12-.22-.1.04-.16.12-.14.21-.06,0-.11.03-.16.09.04.05.09.09.16.09-.03.13.05.18.14.21-.03-.09-.04-.2.12-.2.12,0,.21-.02.26-.1v.5c.02.15-.19.15-.32.1.05.17.15.27.39.24-.06.02-.12.08-.12.18,0,.14.11.3.19.34l.04-1.47h0Z"/>
            <path id="F-6" data-name="F" class="cls-2" d="m52.67,29.76c0,.38-.34.57-.61.57-.36,0-.55-.21-.55-.5,0-.16.03-.26.1-.41l.82-1.71c.03-.06.04-.13.04-.23,0-.15-.15-.28-.3-.28-.14,0-.3.13-.3.29,0,.19.1.27.2.27.12,0,.17-.05.17-.14,0-.06-.03-.09-.07-.09-.11,0-.08.14-.08.14-.05-.01-.1-.07-.07-.13-.04,0-.08-.03-.1-.06.03-.03.06-.05.1-.06-.02-.08,0-.12.08-.14-.01.03-.01.06-.01.09.11-.03.29.02.29.21s-.13.36-.39.32c.06.03.09.09.1.15-.05-.02-.1-.02-.1-.02.03.05.07.1.07.2-.05-.02-.09-.06-.15-.04.09.18-.02.44-.31.5.11-.13.16-.26.16-.4,0-.44-.12-.51-.12-.82,0-.13.07-.26.2-.36h0c-.09-.02-.14-.06-.17-.12.2-.06.48-.05.63,0,.18.02.3.16.33.22s.11.32,0,.54l-.84,1.77c-.04.08-.06.16-.06.25,0,.22.21.3.32.3.14,0,.28-.11.28-.24,0-.08-.05-.13-.11-.13-.16,0-.15.13-.12.22-.1-.04-.16-.12-.14-.21-.06,0-.11-.03-.16-.09.04-.05.09-.09.16-.09-.03-.13.05-.18.14-.21-.03.09-.04.2.12.2.12,0,.21.02.26.1v-.5c.02-.15-.19-.15-.32-.1.05-.17.15-.27.39-.24-.06-.02-.12-.08-.12-.18,0-.14.11-.3.19-.34l.04,1.47h0Z"/>
          </g>
          <g id="E-4" data-name="E">
            <path class="cls-2" d="m52.63,34.98s.18.15.24.08c.1-.12-.3-.73-.3-.94,0-.35.23-.44.52-.49.19-.03.51.01.51.01-.06.08-.1.1-.2.11.11.06.22.18.22.38,0,.3-.12.42-.12.76,0,.19.15.43.15.43-.27-.03-.41-.28-.33-.48-.04,0-.08,0-.12.04-.02-.06.01-.12.05-.18-.03-.02-.06,0-.11,0,0-.06.04-.12.12-.18-.25.06-.4-.11-.4-.29,0-.14.09-.23.19-.23.03,0,.07.01.1.03.02-.04,0-.09,0-.12.07.02.11.06.08.14.05,0,.09.02.12.06-.03.04-.07.06-.12.06.04.08,0,.12-.07.16,0,0,.04-.16-.06-.16-.04,0-.09.01-.09.08,0,.06.05.14.17.13s.21-.08.21-.27c0-.17-.14-.26-.32-.26-.16,0-.29.08-.29.25,0,.23.33.74.33.94,0,.15-.14.24-.27.24-.17,0-.32-.17-.32-.17l.1-.13h0Z"/>
            <path id="F-7" data-name="F" class="cls-2" d="m52.59,30.89c0-.38.34-.57.61-.57.36,0,.55.21.55.5,0,.16-.03.26-.1.41l-.82,1.71c-.03.06-.04.13-.04.23,0,.15.15.28.3.28.14,0,.3-.13.3-.29,0-.19-.1-.27-.2-.27-.12,0-.17.05-.17.14,0,.06.03.09.07.09.11,0,.08-.14.08-.14.05.01.1.07.07.13.04,0,.08.03.1.06-.03.03-.06.05-.1.06.02.08,0,.12-.08.14.01-.03.01-.06.01-.09-.11.03-.29-.02-.29-.21s.13-.36.39-.32c-.06-.03-.09-.09-.1-.15.05.02.1.02.1.02-.03-.05-.07-.1-.07-.2.05.02.09.06.15.04-.09-.18.02-.44.31-.5-.11.13-.16.26-.16.4,0,.44.12.51.12.82,0,.13-.07.26-.2.36h0c.09.02.14.06.17.12-.2.06-.48.05-.63,0-.18-.02-.3-.16-.33-.22s-.11-.32,0-.54l.84-1.77c.04-.08.06-.16.06-.25,0-.22-.21-.3-.32-.3-.14,0-.28.11-.28.24,0,.08.05.13.11.13.16,0,.15-.13.12-.22.1.04.16.12.14.21.06,0,.11.03.16.09-.04.05-.09.09-.16.09.03.13-.05.18-.14.21.03-.09.04-.2-.12-.2-.12,0-.21-.02-.26-.1v.5c-.02.15.19.15.32.1-.05.17-.15.27-.39.24.06.02.12.08.12.18,0,.14-.11.3-.19.34l-.04-1.47h0Z"/>
            <path id="F-8" data-name="F" class="cls-2" d="m52.59,29.76c0,.38.34.57.61.57.36,0,.55-.21.55-.5,0-.16-.03-.26-.1-.41l-.82-1.71c-.03-.06-.04-.13-.04-.23,0-.15.15-.28.3-.28.14,0,.3.13.3.29,0,.19-.1.27-.2.27-.12,0-.17-.05-.17-.14,0-.06.03-.09.07-.09.11,0,.08.14.08.14.05-.01.1-.07.07-.13.04,0,.08-.03.1-.06-.03-.03-.06-.05-.1-.06.02-.08,0-.12-.08-.14.01.03.01.06.01.09-.11-.03-.29.02-.29.21s.13.36.39.32c-.06.03-.09.09-.1.15.05-.02.1-.02.1-.02-.03.05-.07.1-.07.2.05-.02.09-.06.15-.04-.09.18.02.44.31.5-.11-.13-.16-.26-.16-.4,0-.44.12-.51.12-.82,0-.13-.07-.26-.2-.36h0c.09-.02.14-.06.17-.12-.2-.06-.48-.05-.63,0-.18.02-.3.16-.33.22s-.11.32,0,.54l.84,1.77c.04.08.06.16.06.25,0,.22-.21.3-.32.3-.14,0-.28-.11-.28-.24,0-.08.05-.13.11-.13.16,0,.15.13.12.22.1-.04.16-.12.14-.21.06,0,.11-.03.16-.09-.04-.05-.09-.09-.16-.09.03-.13-.05-.18-.14-.21.03.09.04.2-.12.2-.12,0-.21.02-.26.1v-.5c-.02-.15.19-.15.32-.1-.05-.17-.15-.27-.39-.24.06-.02.12-.08.12-.18,0-.14-.11-.3-.19-.34l-.04,1.47h0Z"/>
          </g>
        </g>
      </g>
    </g>
  </g>
</svg>