<?xml version="1.0" encoding="UTF-8"?>
<svg id="Layer_1" data-name="Layer 1" xmlns="http://www.w3.org/2000/svg" viewBox="0 0 77.58 29.06">
  <defs>
    <style>
      .cls-1 {
        fill: #343434;
      }

      .cls-2, .cls-3 {
        fill: #fff;
      }

      .cls-3, .cls-4 {
        fill-rule: evenodd;
      }

      .cls-5 {
        fill: #8c8c8c;
      }

      .cls-6 {
        fill: #393939;
      }

      .cls-4 {
        fill: #50af95;
      }

      .cls-7 {
        fill: #f7931a;
      }

      .cls-8 {
        fill: #3c3c3b;
      }

      .cls-9 {
        fill: #141414;
      }
    </style>
  </defs>
  <g id="Layer_1-2" data-name="Layer_1">
    <g id="_1421487920208" data-name=" 1421487920208">
      <path class="cls-7" d="m23.53,18.09c-1.59,6.4-8.06,10.3-14.46,8.72C2.67,25.22-1.23,18.74.35,12.34,1.94,5.94,8.42,2.04,14.82,3.63c.01,0,.02,0,.03,0,6.38,1.6,10.27,8.07,8.68,14.46h0Z"/>
      <path class="cls-2" d="m14.65,13.48c-.37,1.49-2.65.73-3.39.54l.65-2.61c.73.18,3.11.52,2.72,2.07h.01Zm-.41,4.22c-.4,1.63-3.14.75-4.03.53l.72-2.88c.89.22,3.73.66,3.31,2.36Zm2.99-4.2c.24-1.59-.97-2.44-2.61-3.01l.54-2.15-1.32-.33-.52,2.1c-.34-.09-.7-.17-1.05-.25l.52-2.12-1.31-.33-.54,2.15-.84-.19-1.81-.45-.35,1.4s.97.22.95.24c.37.04.64.37.61.75l-.61,2.45s.09.03.13.04l-.14-.04-.85,3.44c-.08.25-.35.39-.6.31h0s-.96-.24-.96-.24l-.65,1.49,1.71.42.93.24-.54,2.18,1.31.33.54-2.15c.35.1.7.19,1.04.27l-.53,2.16,1.31.32.54-2.17c2.24.42,3.91.25,4.62-1.77.57-1.63-.03-2.56-1.21-3.18.86-.2,1.49-.75,1.68-1.93h0Z"/>
    </g>
  </g>
  <g id="Layer_1-3" data-name="Layer_1">
    <g id="_1421394342400" data-name=" 1421394342400">
      <g>
        <polygon class="cls-1" points="37.44 0 37.24 .66 37.24 19.88 37.44 20.07 46.36 14.8 37.44 0"/>
        <polygon class="cls-5" points="37.44 0 28.52 14.8 37.44 20.07 37.44 10.74 37.44 0"/>
        <polygon class="cls-8" points="37.44 21.76 37.33 21.89 37.33 28.74 37.44 29.06 46.36 16.49 37.44 21.76"/>
        <polygon class="cls-5" points="37.44 29.06 37.44 21.76 28.52 16.49 37.44 29.06"/>
        <polygon class="cls-9" points="37.44 20.07 46.36 14.8 37.44 10.74 37.44 20.07"/>
        <polygon class="cls-6" points="28.52 14.8 37.44 20.07 37.44 10.74 28.52 14.8"/>
      </g>
    </g>
  </g>
  <path class="cls-4" d="m55.39,3.64l-4.95,10.4c-.04.08-.02.17.04.24l13.38,12.82c.08.08.2.08.28,0l13.38-12.82c.06-.06.08-.16.04-.24l-4.95-10.4c-.03-.07-.1-.12-.18-.12h-16.85c-.08,0-.15.04-.18.12h0Z"/>
  <path class="cls-3" d="m65.72,15.11h0c-.1,0-.59.04-1.7.04-.88,0-1.51-.03-1.72-.04h0c-3.4-.15-5.94-.74-5.94-1.45s2.54-1.3,5.94-1.45v2.31c.22.02.86.05,1.74.05,1.06,0,1.59-.04,1.68-.05v-2.31c3.39.15,5.93.74,5.93,1.45s-2.53,1.3-5.93,1.45h0Zm0-3.14v-2.07h4.74v-3.16h-12.9v3.16h4.74v2.07c-3.85.18-6.75.94-6.75,1.85s2.9,1.68,6.75,1.85v6.63h3.42v-6.64c3.84-.18,6.73-.94,6.73-1.85s-2.89-1.68-6.73-1.85h0Zm0,0h0Z"/>
</svg>