<?xml version="1.0" standalone="no"?>
<!DOCTYPE svg PUBLIC "-//W3C//DTD SVG 20010904//EN"
 "http://www.w3.org/TR/2001/REC-SVG-20010904/DTD/svg10.dtd">
<svg version="1.0" xmlns="http://www.w3.org/2000/svg"
 width="1024.000000pt" height="1024.000000pt" viewBox="0 0 1024.000000 1024.000000"
 preserveAspectRatio="xMidYMid meet">
<metadata>
Created by potrace 1.14, written by Peter Selinger 2001-2017
</metadata>
<g transform="translate(0.000000,1024.000000) scale(0.100000,-0.100000)"
fill="#000000" stroke="none">
<path d="M1590 9080 c-193 -25 -311 -123 -369 -305 -14 -45 -16 -398 -21
-3598 l-5 -3549 -83 -34 c-138 -57 -212 -116 -212 -170 0 -104 301 -229 745
-308 956 -171 2535 -260 4053 -228 317 7 669 17 782 22 1121 54 2017 157 2458
285 215 61 322 111 375 175 36 42 34 72 -7 117 -35 39 -71 60 -188 112 l-68
30 0 3468 c0 1907 -3 3500 -6 3538 -19 232 -107 360 -294 427 l-65 23 -945 2
c-764 2 -961 0 -1027 -12 -115 -19 -218 -70 -297 -148 -92 -91 -108 -116 -346
-552 -64 -117 -325 -593 -340 -620 -9 -16 -52 -95 -95 -175 -223 -416 -368
-670 -400 -703 -48 -50 -103 -64 -161 -42 -72 27 -45 -17 -514 835 -651 1181
-638 1158 -743 1256 -75 70 -133 104 -232 138 -59 20 -81 20 -1000 22 -517 1
-965 -1 -995 -6z m2217 -4098 c14 -9 76 -119 290 -517 80 -148 166 -301 191
-340 71 -108 155 -186 253 -234 138 -67 195 -74 569 -74 297 1 332 3 403 22
206 54 345 181 482 436 63 118 171 318 192 355 11 19 44 80 73 135 82 154 124
220 140 220 40 0 40 8 40 -1541 l0 -1492 -25 -4 c-14 -3 -127 -1 -253 5 -323
14 -1768 13 -2105 -1 -153 -7 -282 -10 -288 -7 -10 7 -13 2984 -3 3023 7 23
20 27 41 14z"/>
</g>
</svg>
