<?xml version="1.0" encoding="UTF-8"?>
<svg id="Layer_1" data-name="Layer 1" xmlns="http://www.w3.org/2000/svg" viewBox="0 0 77.42 39.23">
  <defs>
    <style>
      .cls-1 {
        fill: #d90751;
      }

      .cls-2 {
        fill: #fab718;
      }

      .cls-3 {
        fill: #fff;
      }

      .cls-4 {
        fill: #ed6f26;
      }

      .cls-5 {
        fill: #63b22f;
      }

      .cls-6 {
        fill: #fc3f1d;
      }

      .cls-7 {
        fill: #1487c9;
      }

      .cls-8 {
        fill: #ff8c00;
      }

      .cls-9 {
        fill: #017f36;
      }

      .cls-10 {
        fill: none;
      }

      .cls-11 {
        fill: #984995;
      }

      .cls-12 {
        fill: #5b57a2;
      }

      .cls-13 {
        fill-rule: evenodd;
      }
    </style>
  </defs>
  <path d="m77.42,6.96v5.89h-2.1v-4.13h-2.03v4.13h-2.1v-5.89h6.23Z"/>
  <path class="cls-13" d="m66.87,13.06c1.88,0,3.28-1.15,3.28-2.91s-1.03-2.79-2.76-2.79c-.8,0-1.45.28-1.95.76.12-1,.96-1.73,1.89-1.73.21,0,1.83,0,1.83,0l.91-1.75s-2.03.05-2.97.05c-2.16.04-3.61,2-3.61,4.38,0,2.77,1.42,3.99,3.37,3.99Zm.01-4.15c.7,0,1.18.46,1.18,1.24,0,.71-.43,1.29-1.18,1.29-.72,0-1.21-.54-1.21-1.28,0-.79.48-1.26,1.21-1.26Z"/>
  <path d="m61.79,10.88s-.5.29-1.24.34c-.85.03-1.61-.51-1.61-1.47s.67-1.47,1.59-1.47c.56,0,1.31.39,1.31.39,0,0,.55-1,.83-1.5-.52-.39-1.21-.61-2.01-.61-2.03,0-3.6,1.32-3.6,3.18s1.48,3.17,3.6,3.13c.59-.02,1.41-.23,1.91-.55l-.78-1.44h0Z"/>
  <path class="cls-12" d="m43.66,5.46l1.95,3.48v2.12l-1.95,3.48V5.46Z"/>
  <path class="cls-1" d="m51.14,7.68l1.83-1.12h3.74s-5.56,3.4-5.56,3.4c0,0,0-2.28,0-2.28Z"/>
  <path class="cls-2" d="m51.13,5.44v4.61s-1.94-1.2-1.94-1.2V1.96l1.94,3.48h0Z"/>
  <path class="cls-4" d="m56.07,5.42h-3.74s-1.84-1.11-1.84-1.11l-1.94-3.48,7.51,4.59h0Z"/>
  <path class="cls-5" d="m51.14,14.56v-2.24l-1.95-1.18v6.9s1.95-3.48,1.95-3.48Z"/>
  <path class="cls-7" d="m52.96,13.45l-7.35-4.51-1.95-3.48,13.03,7.99h-3.73s0,0,0,0Z"/>
  <path class="cls-9" d="m49.19,18.05l1.95-3.48,1.82-1.11h3.73s-7.5,4.59-7.5,4.59Z"/>
  <path class="cls-11" d="m43.66,14.54l5.54-3.39-1.86-1.14-1.73,1.06-1.95,3.48Z"/>
  <path class="cls-8" d="m47.28,25.36v9.75s0,.07-.02.1c-.01.03-.03.06-.06.09-.02.03-.05.05-.09.06-.03.01-.07.02-.1.02h-1.94s-.07,0-.1-.02c-.03-.01-.06-.03-.09-.06-.02-.03-.04-.06-.06-.09-.01-.03-.02-.07-.02-.1v-9.75s0-.07.02-.1c.01-.03.03-.06.06-.09.02-.03.05-.05.09-.06s.07-.02.1-.02h1.94s.07,0,.1.02.06.03.09.06c.02.03.04.06.06.09.01.03.02.07.02.1Zm15.17-.27c.08,0,.17.04.26.12.06.06.06.15.04.23l-3.21,9.76c-.02.05-.05.09-.1.12-.04.03-.1.05-.15.05h-1.74c-.11,0-.21-.06-.25-.17l-1.87-5.69-1.87,5.69c-.02.05-.05.09-.1.12-.04.03-.1.05-.15.05h-1.74c-.11,0-.21-.06-.25-.17l-3.21-9.76c-.02-.08-.02-.15.04-.23.04-.08.13-.12.21-.12h2.17c.11,0,.21.08.25.19l1.72,5.77,1.89-5.77c.02-.05.05-.09.1-.12.04-.03.1-.05.15-.05h1.53c.11,0,.21.06.25.17l1.89,5.77,1.72-5.77c.02-.05.05-.1.09-.14.04-.03.1-.05.15-.06h2.17Zm3.28,0c.13,0,.25.12.26.27v9.75s0,.07-.02.1c-.01.03-.03.06-.06.09-.02.03-.05.05-.09.06-.03.01-.07.02-.1.02h-1.94s-.07,0-.1-.02c-.03-.01-.06-.03-.09-.06-.02-.03-.04-.06-.06-.09-.01-.03-.02-.07-.02-.1v-9.75s0-.07.02-.1c.01-.03.03-.06.06-.09.02-.03.05-.05.09-.06.03-.01.07-.02.1-.02h1.94Zm-22.06,9.94c.11.13.02.33-.15.33h-2.38s-.09,0-.14-.03c-.04-.02-.08-.05-.11-.09l-.4-.5c-.83.54-1.81.87-2.85.87-2.91,0-5.26-2.41-5.26-5.38s2.36-5.38,5.26-5.38,5.27,2.41,5.27,5.38c0,1.06-.3,2.07-.83,2.91l1.59,1.89Zm-4.72-2.16l-1.04-1.29c-.11-.13-.02-.35.15-.35h2.19c.11-.31.17-.66.17-1,0-1.6-1.17-2.99-2.77-2.99s-2.77,1.39-2.77,2.99,1.17,2.97,2.77,2.97c.45.02.91-.12,1.3-.33Z"/>
  <path class="cls-8" d="m25.97,33.24c.28.1.38.51.4.69.04.32-.05.45-.16.45s-.25-.13-.41-.38c-.16-.25-.22-.53-.14-.68.05-.09.17-.14.31-.08Zm-1.61,1.18c.17,0,.36.07.53.22.33.27.42.59.25.82-.1.12-.25.19-.43.19s-.37-.06-.5-.18c-.3-.25-.38-.67-.19-.9.07-.09.19-.15.34-.15Zm-3.7,3.03c-4.02,0-7.28-3.22-7.28-7.2s3.26-7.2,7.28-7.2,7.28,3.22,7.28,7.2c0,1.35-.38,2.62-1.03,3.7-.02.03-.07.02-.08-.02-.25-1.77-1.34-2.74-2.93-3.04-.14-.02-.16-.1.02-.13.49-.04,1.17-.03,1.53.03.02-.18.03-.37.03-.55,0-2.63-2.16-4.76-4.82-4.76s-4.81,2.14-4.81,4.76,2.16,4.76,4.82,4.76h.22c-.08-.42-.11-.86-.1-1.29.01-.29.07-.34.2-.1.67,1.14,1.62,2.17,3.48,2.58,1.52.34,3.05.72,4.69,2.78.15.18-.07.37-.24.22-1.67-1.47-3.2-1.95-4.58-1.95-1.56.01-2.61.21-3.68.21Z"/>
  <rect class="cls-10" x="0" y="0" width="40.55" height="16.22" rx="8.11" ry="8.11"/>
  <path class="cls-6" d="m8.11,1.47h0c3.66,0,6.64,2.97,6.64,6.64h0c0,3.66-2.97,6.64-6.64,6.64h0c-3.66,0-6.64-2.97-6.64-6.64h0c0-3.66,2.97-6.64,6.64-6.64Z"/>
  <path class="cls-3" d="m9.05,12.1h1.39v-7.96h-2.02c-2.03,0-3.09,1.04-3.09,2.58,0,1.23.58,1.95,1.63,2.69l-1.81,2.69h1.5l2.02-3.01-.7-.47c-.85-.57-1.26-1.02-1.26-1.98,0-.85.6-1.42,1.73-1.42h.62v6.89Z"/>
  <path class="cls-13" d="m18.63,5.36v2.75h1.19c.36,0,.68-.04.94-.13.26-.09.46-.24.59-.44.13-.21.21-.48.21-.82,0-.46-.13-.8-.4-1.02-.26-.22-.69-.34-1.26-.34h-1.27Zm0,6.73v-2.73h1.19c.72,0,1.35-.09,1.85-.26.5-.17.9-.45,1.18-.84.28-.39.42-.9.42-1.54,0-.86-.28-1.51-.85-1.94-.57-.44-1.43-.65-2.59-.65h-2.86v7.96h1.67Zm11.07-.71h0c0,.23.03.47.06.71h0s-1.61,0-1.61,0c-.02-.06-.04-.15-.07-.26-.03-.11-.05-.21-.07-.32h-.06c-.14.11-.29.21-.46.31-.17.11-.39.19-.64.25-.26.07-.57.1-.93.1-.64,0-1.15-.16-1.54-.47-.39-.31-.58-.76-.58-1.33,0-.45.13-.82.39-1.09.26-.28.66-.49,1.19-.62.54-.12,1.24-.2,2.1-.2h.53v-.23c0-.2-.05-.36-.16-.49-.11-.13-.26-.22-.46-.27-.21-.05-.44-.07-.74-.07s-.61.02-.92.07c-.31.05-.59.12-.84.2-.25.08-.45.16-.61.25v-1.19c.26-.13.61-.25,1.06-.34.45-.1.97-.14,1.56-.14.63,0,1.14.06,1.55.19.4.12.71.34.91.63.21.3.3.69.3,1.18v2.44c0,.24,0,.47.02.7Zm-1.67-1.94h-.49c-.49,0-.89.02-1.19.08-.3.06-.51.15-.64.27-.13.13-.2.3-.2.53,0,.16.04.31.12.43.07.12.2.21.35.27.16.07.36.11.61.11.33,0,.61-.06.86-.16.24-.11.44-.26.59-.44v-1.08h0Zm3.17,3.08v1.19c.3.11.63.16.96.15.35,0,.66-.04.91-.12.26-.07.49-.2.7-.37.21-.17.39-.38.56-.63.16-.26.32-.55.47-.91l2.33-5.51h-1.58l-1.69,4.31-1.8-4.31h-1.73l2.64,5.89c-.04.06-.08.12-.11.17-.09.12-.21.21-.34.26-.13.06-.3.08-.49.08s-.35-.02-.48-.06c-.14-.03-.26-.09-.36-.16Z"/>
</svg>