<svg xmlns="http://www.w3.org/2000/svg" data-name="Livello 1" viewBox="0 0 240 240"><defs><linearGradient id="a" x1="120" x2="120" y1="240" gradientUnits="userSpaceOnUse"><stop offset="0" stop-color="#1d93d2"/><stop offset="1" stop-color="#38b0e3"/></linearGradient></defs><circle cx="120" cy="120" r="120" fill="url(#a)"/><path fill="#c8daea" d="m81.23 128.77 14.24 39.4s1.78 3.7 3.68 3.7 30.26-29.5 30.26-29.5l31.52-60.89-79.2 37.12Z"/><path fill="#a9c6d8" d="m100.1 138.88-2.73 29.04s-1.14 8.9 7.76 0 17.41-15.76 17.41-15.76"/><path fill="#fff" d="m81.49 130.18-29.29-9.54s-3.5-1.42-2.37-4.64c.23-.67.7-1.23 2.1-2.2 6.49-4.53 120.1-45.36 120.1-45.36s3.21-1.09 5.1-.37a2.77 2.77 0 0 1 1.89 2.06 9.36 9.36 0 0 1 .25 2.58c0 .76-.1 1.45-.17 2.55-.69 11.16-21.4 94.49-21.4 94.49s-1.24 4.87-5.68 5.04a8.13 8.13 0 0 1-5.92-2.29c-8.71-7.5-38.82-27.73-45.47-32.18a1.27 1.27 0 0 1-.55-.9c-.1-.47.42-1.05.42-1.05s52.42-46.6 53.82-51.49c.1-.38-.3-.56-.85-.4-3.48 1.28-63.84 39.4-70.5 43.6a3.21 3.21 0 0 1-1.48.1Z"/></svg>