<svg xmlns="http://www.w3.org/2000/svg" width="48" height="48" fill="none"><path fill="#07F" d="M0 23.04C0 12.18 0 6.74 3.37 3.37 6.75 0 12.17 0 23.04 0h1.92c10.86 0 16.3 0 19.67 3.37C48 6.75 48 12.17 48 23.04v1.92c0 10.86 0 16.3-3.37 19.67C41.25 48 35.83 48 24.96 48h-1.92c-10.86 0-16.3 0-19.67-3.37C0 41.25 0 35.83 0 24.96v-1.92Z"/><path fill="#fff" d="M25.54 34.58c-10.94 0-17.18-7.5-17.44-19.98h5.48c.18 9.16 4.22 13.04 7.42 13.84V14.6h5.16v7.9c3.16-.34 6.48-3.94 7.6-7.9h5.16c-.86 4.88-4.46 8.48-7.02 9.96a15.79 15.79 0 0 1 8.22 10.02h-5.68c-1.22-3.8-4.26-6.74-8.28-7.14v7.14h-.62Z"/></svg>